<svg width="64" height="64" viewBox="0 0 64 64" fill="none" xmlns="http://www.w3.org/2000/svg">
<path d="M16 17C16 14.7909 17.7909 13 20 13H52C54.2091 13 56 14.7909 56 17V54C56 56.2091 54.2091 58 52 58H20C17.7909 58 16 56.2091 16 54V17Z" fill="#2FBA6C"/>
<path d="M16 43H56V54C56 56.2091 54.2091 58 52 58H20C17.7909 58 16 56.2091 16 54V43Z" fill="#2CAD65"/>
<path d="M16 17C16 14.7909 17.7909 13 20 13H52C54.2091 13 56 14.7909 56 17V28H16V17Z" fill="#32C773"/>
<g filter="url(#filter0_d_1029_9612)">
<path d="M8 10C8 7.79086 9.79086 6 12 6H28C30.2091 6 32 7.79086 32 10V26C32 28.2091 30.2091 30 28 30H12C9.79086 30 8 28.2091 8 26V10Z" fill="url(#paint0_linear_1029_9612)"/>
</g>
<path d="M26.0318 19.0322L21.9995 15M26.0318 19.0322L21.9995 23M26.0318 19.0322L15.0317 19.0322C13.9272 19.0322 13.0317 18.1368 13.0317 17.0322L13.0317 13" stroke="white" stroke-width="2.5" stroke-linecap="round" stroke-linejoin="round"/>
<path d="M26.6264 44.292H23.0624V46.476H27.1784V48H21.3224V39.216H27.0464V40.728H23.0624V42.792H26.6264V44.292ZM31.6472 39.216C32.3432 39.216 32.9512 39.336 33.4712 39.576C33.9912 39.816 34.3912 40.156 34.6712 40.596C34.9592 41.028 35.1032 41.536 35.1032 42.12C35.1032 42.696 34.9592 43.204 34.6712 43.644C34.3912 44.076 33.9912 44.412 33.4712 44.652C32.9512 44.884 32.3432 45 31.6472 45H30.3632V48H28.6232V39.216H31.6472ZM31.4552 43.524C31.9992 43.524 32.4352 43.408 32.7632 43.176C33.0912 42.936 33.2552 42.584 33.2552 42.12C33.2552 41.656 33.0912 41.304 32.7632 41.064C32.4352 40.816 31.9992 40.692 31.4552 40.692H30.3632V43.524H31.4552ZM41.8798 39.216H43.6198V44.448C43.6198 45.2 43.4718 45.856 43.1758 46.416C42.8798 46.968 42.4518 47.396 41.8918 47.7C41.3318 47.996 40.6678 48.144 39.8998 48.144C39.1238 48.144 38.4558 47.996 37.8958 47.7C37.3358 47.396 36.9078 46.968 36.6118 46.416C36.3158 45.856 36.1678 45.2 36.1678 44.448V39.216H37.9078V44.028C37.9078 44.876 38.0798 45.508 38.4238 45.924C38.7758 46.34 39.2678 46.548 39.8998 46.548C40.5238 46.548 41.0078 46.34 41.3518 45.924C41.7038 45.508 41.8798 44.876 41.8798 44.028V39.216ZM50.7333 43.44C51.7013 43.784 52.1853 44.46 52.1853 45.468C52.1853 46.26 51.8933 46.88 51.3093 47.328C50.7333 47.776 49.9213 48 48.8733 48H45.3693V39.216H48.5493C49.4853 39.216 50.2453 39.432 50.8293 39.864C51.4213 40.288 51.7173 40.888 51.7173 41.664C51.7173 42.472 51.3893 43.064 50.7333 43.44ZM47.0733 40.728V42.804H48.3813C48.8533 42.804 49.2253 42.708 49.4973 42.516C49.7773 42.316 49.9173 42.052 49.9173 41.724C49.9173 41.404 49.7813 41.16 49.5093 40.992C49.2373 40.816 48.8613 40.728 48.3813 40.728H47.0733ZM48.7293 46.488C49.2573 46.488 49.6613 46.392 49.9413 46.2C50.2293 46.008 50.3733 45.736 50.3733 45.384C50.3733 45.032 50.2293 44.756 49.9413 44.556C49.6613 44.356 49.2533 44.256 48.7173 44.256H47.0733V46.488H48.7293Z" fill="white"/>
<defs>
<filter id="filter0_d_1029_9612" x="5" y="4" width="30" height="30" filterUnits="userSpaceOnUse" color-interpolation-filters="sRGB">
<feFlood flood-opacity="0" result="BackgroundImageFix"/>
<feColorMatrix in="SourceAlpha" type="matrix" values="0 0 0 0 0 0 0 0 0 0 0 0 0 0 0 0 0 0 127 0" result="hardAlpha"/>
<feOffset dy="1"/>
<feGaussianBlur stdDeviation="1.5"/>
<feComposite in2="hardAlpha" operator="out"/>
<feColorMatrix type="matrix" values="0 0 0 0 0.114423 0 0 0 0 0.51 0 0 0 0 0.287692 0 0 0 0.4 0"/>
<feBlend mode="normal" in2="BackgroundImageFix" result="effect1_dropShadow_1029_9612"/>
<feBlend mode="normal" in="SourceGraphic" in2="effect1_dropShadow_1029_9612" result="shape"/>
</filter>
<linearGradient id="paint0_linear_1029_9612" x1="20" y1="6" x2="20" y2="30" gradientUnits="userSpaceOnUse">
<stop stop-color="#34CD78"/>
<stop offset="1" stop-color="#229956"/>
</linearGradient>
</defs>
</svg>
