<svg width="64" height="64" viewBox="0 0 64 64" fill="none" xmlns="http://www.w3.org/2000/svg">
<path d="M16 17C16 14.7909 17.7909 13 20 13H52C54.2091 13 56 14.7909 56 17V54C56 56.2091 54.2091 58 52 58H20C17.7909 58 16 56.2091 16 54V17Z" fill="#3B88FB"/>
<path d="M16 43H56V54C56 56.2091 54.2091 58 52 58H20C17.7909 58 16 56.2091 16 54V43Z" fill="#397EE5"/>
<path d="M16 17C16 14.7909 17.7909 13 20 13H52C54.2091 13 56 14.7909 56 17V28H16V17Z" fill="#4C92FF"/>
<path d="M30.8936 38.1379C30.8936 38.5809 30.6341 38.9829 30.2303 39.1654L23.6788 42.1255V42.2919L30.2303 45.252C30.6341 45.4344 30.8936 45.8364 30.8936 46.2795C30.8936 47.116 30.0147 47.6612 29.2653 47.2897L21.7802 43.5793C21.3023 43.3424 21 42.8551 21 42.3217V42.0957C21 41.5623 21.3023 41.075 21.7802 40.8381L29.2653 37.1277C30.0147 36.7561 30.8936 37.3014 30.8936 38.1379Z" fill="white"/>
<path d="M35.1917 49.9703C35.0656 50.496 34.5955 50.8667 34.0548 50.8667C33.2998 50.8667 32.7428 50.1618 32.9173 49.4273L36.873 32.7795C37.0001 32.2444 37.4781 31.8667 38.0281 31.8667C38.7959 31.8667 39.3618 32.5844 39.1827 33.3309L35.1917 49.9703Z" fill="white"/>
<path d="M41.7697 37.4815C41.366 37.2991 41.1065 36.8971 41.1065 36.454C41.1065 35.6175 41.9853 35.0723 42.7347 35.4438L50.2198 39.1543C50.6977 39.3912 51 39.8785 51 40.4119V40.6378C51 41.1712 50.6977 41.6585 50.2198 41.8954L42.7347 45.6059C41.9853 45.9774 41.1065 45.4322 41.1065 44.5957C41.1065 44.1526 41.3659 43.7506 41.7697 43.5682L48.2453 40.6423C48.2915 40.6215 48.3212 40.5755 48.3212 40.5248C48.3212 40.4742 48.2915 40.4282 48.2453 40.4074L41.7697 37.4815Z" fill="white"/>
<g filter="url(#filter0_d_1029_9689)">
<path d="M6 12C6 9.79086 7.79086 8 10 8H26C28.2091 8 30 9.79086 30 12V28C30 30.2091 28.2091 32 26 32H10C7.79086 32 6 30.2091 6 28V12Z" fill="url(#paint0_linear_1029_9689)"/>
</g>
<path d="M25.0318 21.0322L20.9995 17M25.0318 21.0322L20.9995 25M25.0318 21.0322L14.0317 21.0322C12.9272 21.0322 12.0317 20.1368 12.0317 19.0322L12.0317 15" stroke="white" stroke-width="2.5" stroke-linecap="round" stroke-linejoin="round"/>
<defs>
<filter id="filter0_d_1029_9689" x="3" y="6" width="30" height="30" filterUnits="userSpaceOnUse" color-interpolation-filters="sRGB">
<feFlood flood-opacity="0" result="BackgroundImageFix"/>
<feColorMatrix in="SourceAlpha" type="matrix" values="0 0 0 0 0 0 0 0 0 0 0 0 0 0 0 0 0 0 127 0" result="hardAlpha"/>
<feOffset dy="1"/>
<feGaussianBlur stdDeviation="1.5"/>
<feComposite in2="hardAlpha" operator="out"/>
<feColorMatrix type="matrix" values="0 0 0 0 0.120149 0 0 0 0 0.346717 0 0 0 0 0.69 0 0 0 0.4 0"/>
<feBlend mode="normal" in2="BackgroundImageFix" result="effect1_dropShadow_1029_9689"/>
<feBlend mode="normal" in="SourceGraphic" in2="effect1_dropShadow_1029_9689" result="shape"/>
</filter>
<linearGradient id="paint0_linear_1029_9689" x1="18" y1="8" x2="18" y2="32" gradientUnits="userSpaceOnUse">
<stop stop-color="#3692E9"/>
<stop offset="1" stop-color="#2365C9"/>
</linearGradient>
</defs>
</svg>
