<svg width="64" height="64" viewBox="0 0 64 64" fill="none" xmlns="http://www.w3.org/2000/svg">
<path d="M56 17C56 14.7909 54.2091 13 52 13H20C17.7909 13 16 14.7909 16 17V54C16 56.2091 17.7909 58 20 58H52C54.2091 58 56 56.2091 56 54V17Z" fill="#2DB49B"/>
<path d="M16 54C16 56.2091 17.7909 58 20 58H52C54.2091 58 56 56.2091 56 54V43H16V54Z" fill="#2AAA93"/>
<path d="M16 17C16 14.7909 17.7909 13 20 13H52C54.2091 13 56 14.7909 56 17V28H16V17Z" fill="#30C0A8"/>
<g filter="url(#filter0_d_1029_9498)">
<path d="M8 10C8 7.79086 9.79086 6 12 6H28C30.2091 6 32 7.79086 32 10V26C32 28.2091 30.2091 30 28 30H12C9.79086 30 8 28.2091 8 26V10Z" fill="url(#paint0_linear_1029_9498)"/>
</g>
<path d="M27.0318 19.0322L22.9995 15M27.0318 19.0322L22.9995 23M27.0318 19.0322L16.0317 19.0322C14.9272 19.0322 14.0317 18.1368 14.0317 17.0322L14.0317 13" stroke="white" stroke-width="2.5" stroke-linecap="round" stroke-linejoin="round"/>
<path d="M26.3511 49.168C25.5951 49.168 24.9465 48.986 24.4051 48.622C23.8638 48.258 23.5045 47.7027 23.3271 46.956L25.0071 46.06C25.1191 46.48 25.2825 46.7927 25.4971 46.998C25.7211 47.2033 26.0105 47.306 26.3651 47.306C26.8318 47.306 27.1631 47.138 27.3591 46.802C27.5551 46.4567 27.6531 45.9247 27.6531 45.206V38.752H29.6831V45.402C29.6831 46.7367 29.3705 47.698 28.7451 48.286C28.1198 48.874 27.3218 49.168 26.3511 49.168ZM35.2613 38.752C36.0733 38.752 36.7826 38.892 37.3893 39.172C37.9959 39.452 38.4626 39.8487 38.7893 40.362C39.1253 40.866 39.2933 41.4587 39.2933 42.14C39.2933 42.812 39.1253 43.4047 38.7893 43.918C38.4626 44.422 37.9959 44.814 37.3893 45.094C36.7826 45.3647 36.0733 45.5 35.2613 45.5H33.7633V49H31.7333V38.752H35.2613ZM35.0373 43.778C35.6719 43.778 36.1806 43.6427 36.5633 43.372C36.9459 43.092 37.1373 42.6813 37.1373 42.14C37.1373 41.5987 36.9459 41.188 36.5633 40.908C36.1806 40.6187 35.6719 40.474 35.0373 40.474H33.7633V43.778H35.0373ZM45.1693 45.066V43.316H49.0893V47.488C48.772 48.0013 48.2633 48.412 47.5633 48.72C46.8727 49.0187 46.1073 49.168 45.2673 49.168C44.2687 49.168 43.382 48.944 42.6073 48.496C41.8327 48.048 41.2307 47.4227 40.8013 46.62C40.372 45.8173 40.1573 44.898 40.1573 43.862C40.1573 42.8167 40.3767 41.8927 40.8153 41.09C41.2633 40.2873 41.8747 39.6667 42.6493 39.228C43.424 38.7893 44.2827 38.57 45.2253 38.57C46.168 38.57 46.9847 38.7847 47.6753 39.214C48.3753 39.634 48.8467 40.1753 49.0893 40.838L47.4093 41.804C47.204 41.3747 46.91 41.0387 46.5273 40.796C46.1447 40.544 45.692 40.418 45.1693 40.418C44.6187 40.418 44.124 40.558 43.6853 40.838C43.2467 41.118 42.9013 41.5193 42.6493 42.042C42.3973 42.5647 42.2713 43.1713 42.2713 43.862C42.2713 44.5713 42.3973 45.1873 42.6493 45.71C42.9107 46.2327 43.2747 46.634 43.7413 46.914C44.2173 47.194 44.768 47.334 45.3933 47.334C46.1213 47.334 46.6907 47.1333 47.1013 46.732V45.066H45.1693Z" fill="white"/>
<defs>
<filter id="filter0_d_1029_9498" x="4" y="2" width="32" height="32" filterUnits="userSpaceOnUse" color-interpolation-filters="sRGB">
<feFlood flood-opacity="0" result="BackgroundImageFix"/>
<feColorMatrix in="SourceAlpha" type="matrix" values="0 0 0 0 0 0 0 0 0 0 0 0 0 0 0 0 0 0 127 0" result="hardAlpha"/>
<feOffset/>
<feGaussianBlur stdDeviation="2"/>
<feComposite in2="hardAlpha" operator="out"/>
<feColorMatrix type="matrix" values="0 0 0 0 0.114423 0 0 0 0 0.51 0 0 0 0 0.287692 0 0 0 0.4 0"/>
<feBlend mode="normal" in2="BackgroundImageFix" result="effect1_dropShadow_1029_9498"/>
<feBlend mode="normal" in="SourceGraphic" in2="effect1_dropShadow_1029_9498" result="shape"/>
</filter>
<linearGradient id="paint0_linear_1029_9498" x1="20" y1="6" x2="20" y2="30" gradientUnits="userSpaceOnUse">
<stop offset="0.0610702" stop-color="#2DCDB0"/>
<stop offset="1" stop-color="#1D8E7A"/>
</linearGradient>
</defs>
</svg>
