<svg width="64" height="64" viewBox="0 0 64 64" fill="none" xmlns="http://www.w3.org/2000/svg">
<path d="M52 14C52 11.7909 50.2091 10 48 10H16C13.7909 10 12 11.7909 12 14V48C12 50.2091 13.7909 52 16 52H48C50.2091 52 52 50.2091 52 48V14Z" fill="#7860F0"/>
<path d="M12 48C12 50.2091 13.7909 52 16 52H48C50.2091 52 52 50.2091 52 48V38H12V48Z" fill="#6650D6"/>
<path d="M12 14C12 11.7909 13.7909 10 16 10H48C50.2091 10 52 11.7909 52 14V24H12V14Z" fill="#876FFE"/>
<path d="M41.6667 22.0001H32.3333M23 22.0001H32.3333M32.3333 22.0001V41.8335" stroke="white" stroke-width="4" stroke-linecap="round" stroke-linejoin="round"/>
<path fill-rule="evenodd" clip-rule="evenodd" d="M19.8287 5.39988C19.8287 4.62668 19.2019 3.99988 18.4287 3.99988H11.6411C8.05623 3.99988 5.15015 6.90595 5.15015 10.4908V14.9999C5.15015 15.7731 5.77695 16.3999 6.55015 16.3999C7.32335 16.3999 7.95015 15.7731 7.95015 14.9999V10.4908C7.95015 8.45235 9.60262 6.79988 11.6411 6.79988H18.4287C19.2019 6.79988 19.8287 6.17308 19.8287 5.39988ZM19.8287 57.3999C19.8287 56.6267 19.2019 55.9999 18.4287 55.9999H11.6411C9.60262 55.9999 7.95015 54.3474 7.95015 52.309V47.7999C7.95015 47.0267 7.32335 46.3999 6.55015 46.3999C5.77695 46.3999 5.15015 47.0267 5.15015 47.7999V52.309C5.15015 55.8938 8.05623 58.7999 11.6411 58.7999H18.4287C19.2019 58.7999 19.8287 58.1731 19.8287 57.3999ZM45.5724 58.7999C44.7992 58.7999 44.1724 58.1731 44.1724 57.3999C44.1724 56.6267 44.7992 55.9999 45.5724 55.9999H52.3598C54.3982 55.9999 56.0507 54.3474 56.0507 52.309V47.7999C56.0507 47.0267 56.6775 46.3999 57.4507 46.3999C58.2239 46.3999 58.8507 47.0267 58.8507 47.7999V52.309C58.8507 55.8938 55.9446 58.7999 52.3598 58.7999H45.5724ZM45.5724 6.79988C44.7992 6.79988 44.1724 6.17308 44.1724 5.39988C44.1724 4.62668 44.7992 3.99988 45.5724 3.99988H52.3598C55.9446 3.99988 58.8507 6.90596 58.8507 10.4908V14.9999C58.8507 15.7731 58.2239 16.3999 57.4507 16.3999C56.6775 16.3999 56.0507 15.7731 56.0507 14.9999V10.4908C56.0507 8.45235 54.3982 6.79988 52.3598 6.79988H45.5724Z" fill="#A99AF6"/>
<g filter="url(#filter0_d_1029_9581)">
<path d="M2 31C2 29.8954 2.89543 29 4 29H60C61.1046 29 62 29.8954 62 31C62 32.1046 61.1046 33 60 33H4C2.89543 33 2 32.1046 2 31Z" fill="#A99AF6"/>
</g>
<defs>
<filter id="filter0_d_1029_9581" x="1.22222" y="29" width="61.5556" height="5.55556" filterUnits="userSpaceOnUse" color-interpolation-filters="sRGB">
<feFlood flood-opacity="0" result="BackgroundImageFix"/>
<feColorMatrix in="SourceAlpha" type="matrix" values="0 0 0 0 0 0 0 0 0 0 0 0 0 0 0 0 0 0 127 0" result="hardAlpha"/>
<feOffset dy="0.777778"/>
<feGaussianBlur stdDeviation="0.388889"/>
<feColorMatrix type="matrix" values="0 0 0 0 0.505882 0 0 0 0 0.411765 0 0 0 0 0.964706 0 0 0 0.4 0"/>
<feBlend mode="multiply" in2="BackgroundImageFix" result="effect1_dropShadow_1029_9581"/>
<feBlend mode="normal" in="SourceGraphic" in2="effect1_dropShadow_1029_9581" result="shape"/>
</filter>
</defs>
</svg>
