<svg width="64" height="64" viewBox="0 0 64 64" fill="none" xmlns="http://www.w3.org/2000/svg">
<path d="M56 17C56 14.7909 54.2091 13 52 13H20C17.7909 13 16 14.7909 16 17V54C16 56.2091 17.7909 58 20 58H52C54.2091 58 56 56.2091 56 54V17Z" fill="#FF901F"/>
<path d="M16 54C16 56.2091 17.7909 58 20 58H52C54.2091 58 56 56.2091 56 54V43H16V54Z" fill="#F28514"/>
<path d="M16 17C16 14.7909 17.7909 13 20 13H52C54.2091 13 56 14.7909 56 17V28H16V17Z" fill="#FF9E3B"/>
<g filter="url(#filter0_d_1029_9538)">
<path d="M8 10C8 7.79086 9.79086 6 12 6H28C30.2091 6 32 7.79086 32 10V26C32 28.2091 30.2091 30 28 30H12C9.79086 30 8 28.2091 8 26V10Z" fill="url(#paint0_linear_1029_9538)"/>
</g>
<path d="M27.0318 19.0322L22.9995 15M27.0318 19.0322L22.9995 23M27.0318 19.0322L16.0317 19.0322C14.9272 19.0322 14.0317 18.1368 14.0317 17.0322L14.0317 13" stroke="white" stroke-width="2.5" stroke-linecap="round" stroke-linejoin="round"/>
<path d="M26.2559 46.4447L27.1472 47.3238L26.0437 47.9665C25.9103 48.0453 25.7405 48.0211 25.6314 47.9119C25.5162 47.7967 25.498 47.6209 25.5829 47.4815L26.2559 46.4447ZM43.6207 27.9642L45.5609 29.8862L30.009 45.5776C29.6694 45.9232 29.2875 46.2203 28.8691 46.4629L27.4746 47.1844L26.4317 46.1476L27.1957 44.747C27.4443 44.365 27.7292 44.0073 28.0506 43.6859L43.6207 27.9642ZM48.0832 27.4246L45.9005 29.6255L43.9603 27.7035L46.143 25.5026C46.6766 24.969 47.5375 24.963 48.0711 25.4965C48.6107 26.024 48.6107 26.885 48.0832 27.4246Z" fill="white"/>
<path d="M56 49.0513V49.9001H25.4244C25.19 49.9001 25 49.7101 25 49.4757C25 49.2413 25.19 49.0513 25.4244 49.0513H56Z" fill="white"/>
<defs>
<filter id="filter0_d_1029_9538" x="5" y="3" width="30" height="30" filterUnits="userSpaceOnUse" color-interpolation-filters="sRGB">
<feFlood flood-opacity="0" result="BackgroundImageFix"/>
<feColorMatrix in="SourceAlpha" type="matrix" values="0 0 0 0 0 0 0 0 0 0 0 0 0 0 0 0 0 0 127 0" result="hardAlpha"/>
<feOffset/>
<feGaussianBlur stdDeviation="1.5"/>
<feComposite in2="hardAlpha" operator="out"/>
<feColorMatrix type="matrix" values="0 0 0 0 0.960784 0 0 0 0 0.505882 0 0 0 0 0.0392157 0 0 0 0.4 0"/>
<feBlend mode="normal" in2="BackgroundImageFix" result="effect1_dropShadow_1029_9538"/>
<feBlend mode="normal" in="SourceGraphic" in2="effect1_dropShadow_1029_9538" result="shape"/>
</filter>
<linearGradient id="paint0_linear_1029_9538" x1="20" y1="6" x2="20" y2="30" gradientUnits="userSpaceOnUse">
<stop stop-color="#FF9120"/>
<stop offset="1" stop-color="#E67500"/>
</linearGradient>
</defs>
</svg>
