<svg width="64" height="64" viewBox="0 0 64 64" fill="none" xmlns="http://www.w3.org/2000/svg">
<path d="M56 17C56 14.7909 54.2091 13 52 13H20C17.7909 13 16 14.7909 16 17V54C16 56.2091 17.7909 58 20 58H52C54.2091 58 56 56.2091 56 54V17Z" fill="#FB7545"/>
<path d="M56 43H16V54C16 56.2091 17.7909 58 20 58H52C54.2091 58 56 56.2091 56 54V43Z" fill="#FB622B"/>
<path d="M56 17C56 14.7909 54.2091 13 52 13H20C17.7909 13 16 14.7909 16 17V28H56V17Z" fill="#FB865D"/>
<path d="M31 50V42.5M31 42.5H40C42.2091 42.5 44 40.7091 44 38.5V38C44 35.7909 42.2091 34 40 34H31V39V42.5Z" stroke="white" stroke-width="4" stroke-linecap="round" stroke-linejoin="round"/>
<g filter="url(#filter0_d_1029_9696)">
<path d="M8 10C8 7.79086 9.79086 6 12 6H28C30.2091 6 32 7.79086 32 10V26C32 28.2091 30.2091 30 28 30H12C9.79086 30 8 28.2091 8 26V10Z" fill="url(#paint0_linear_1029_9696)"/>
</g>
<path d="M27.0318 19.0322L22.9995 15M27.0318 19.0322L22.9995 23M27.0318 19.0322L16.0317 19.0322C14.9272 19.0322 14.0317 18.1368 14.0317 17.0322L14.0317 13" stroke="white" stroke-width="2.5" stroke-linecap="round" stroke-linejoin="round"/>
<defs>
<filter id="filter0_d_1029_9696" x="5" y="4" width="30" height="30" filterUnits="userSpaceOnUse" color-interpolation-filters="sRGB">
<feFlood flood-opacity="0" result="BackgroundImageFix"/>
<feColorMatrix in="SourceAlpha" type="matrix" values="0 0 0 0 0 0 0 0 0 0 0 0 0 0 0 0 0 0 127 0" result="hardAlpha"/>
<feOffset dy="1"/>
<feGaussianBlur stdDeviation="1.5"/>
<feComposite in2="hardAlpha" operator="out"/>
<feColorMatrix type="matrix" values="0 0 0 0 0.854902 0 0 0 0 0.4 0 0 0 0 0.239216 0 0 0 0.4 0"/>
<feBlend mode="normal" in2="BackgroundImageFix" result="effect1_dropShadow_1029_9696"/>
<feBlend mode="normal" in="SourceGraphic" in2="effect1_dropShadow_1029_9696" result="shape"/>
</filter>
<linearGradient id="paint0_linear_1029_9696" x1="19.5" y1="5.5" x2="19.5" y2="29.5" gradientUnits="userSpaceOnUse">
<stop stop-color="#FF7C43"/>
<stop offset="1" stop-color="#E45623"/>
</linearGradient>
</defs>
</svg>
